<svg width="20" height="20" viewBox="0 0 20 20" fill="none" xmlns="http://www.w3.org/2000/svg">
<path d="M19.3975 9.28495C18.4133 7.02994 17.485 4.89994 16.5 3.68244C14.4683 0.969944 11.24 -0.375056 7.87748 0.0882772C3.71414 0.660777 0.417477 4.12161 0.03831 8.31911C-0.182523 10.7649 0.556643 13.1458 2.11914 15.0241C2.36498 15.3183 2.49998 15.6916 2.49998 16.0758V19.9999H13.3333V17.4999H15.2058C16.4558 17.4999 17.5208 16.5658 17.6841 15.3283L18.0583 12.4999H20V10.6566L19.3975 9.28495ZM9.16664 7.49995C10.0858 7.49995 10.8333 8.24745 10.8333 9.16661C10.8333 10.0858 10.0858 10.8333 9.16664 10.8333C8.24748 10.8333 7.49998 10.0858 7.49998 9.16661C7.49998 8.24745 8.24748 7.49995 9.16664 7.49995ZM16.5983 10.8333L16.0316 15.1099C15.9775 15.5224 15.6225 15.8333 15.2058 15.8333H11.6666V18.3333H4.16664V16.0758C4.16664 15.3024 3.89414 14.5499 3.39998 13.9574C2.12164 12.4216 1.51664 10.4724 1.69831 8.46911C2.00831 5.03744 4.70164 2.20661 8.10414 1.73994C8.18081 1.72911 8.25748 1.71994 8.33331 1.71161V5.93911C6.89664 6.30994 5.83331 7.61661 5.83331 9.16745C5.83331 11.0058 7.32831 12.5008 9.16664 12.5008C11.005 12.5008 12.5 11.0058 12.5 9.16745C12.5 7.61661 11.4366 6.30994 9.99998 5.93911V1.70994C12.0366 1.93328 13.895 2.98328 15.1858 4.70578C16.0475 5.77161 16.9741 7.89661 17.8708 9.95078L18.2575 10.8333H16.5991H16.5983Z" fill="white"/>
</svg>
