<svg width="70" height="64" viewBox="0 0 70 64" fill="none" xmlns="http://www.w3.org/2000/svg">
<path d="M13.6719 41.1963H21.875C23.3852 41.1963 24.6094 39.9721 24.6094 38.4619C24.6094 36.9517 23.3852 35.7275 21.875 35.7275H13.6719C12.1617 35.7275 10.9375 36.9517 10.9375 38.4619C10.9375 39.9721 12.1617 41.1963 13.6719 41.1963Z" fill="#3C0CEC"/>
<path d="M13.6719 30.2588H21.875C23.3852 30.2588 24.6094 29.0346 24.6094 27.5244C24.6094 26.0142 23.3852 24.79 21.875 24.79H13.6719C12.1617 24.79 10.9375 26.0142 10.9375 27.5244C10.9375 29.0346 12.1617 30.2588 13.6719 30.2588Z" fill="#3C0CEC"/>
<path d="M29.7285 38.4619C29.7285 39.9721 30.9527 41.1963 32.4629 41.1963C38.1806 41.1963 43.5561 38.9697 47.5992 34.9267L67.5956 14.9283C70.8014 11.7226 70.802 6.53346 67.5956 3.32727C64.3974 0.128867 59.1932 0.128867 55.9946 3.32727L35.9982 23.3257C31.9553 27.3688 29.7285 32.7442 29.7285 38.4619ZM59.8619 7.19436C60.9277 6.12822 62.6627 6.12822 63.7287 7.19436C64.7973 8.26268 64.7977 9.99258 63.7287 11.0613L43.7321 31.0597C41.4463 33.3456 38.5882 34.8516 35.4808 35.444C36.0732 32.3368 37.5793 29.4787 39.865 27.1928L59.8619 7.19436Z" fill="#3C0CEC"/>
<path d="M8.20312 63.0713C10.2233 63.0713 12.165 62.33 13.6708 60.9836L17.4506 57.6025H45.3906C52.9294 57.6025 59.0625 51.4693 59.0625 43.9307V37.7971C59.0625 36.2869 57.8383 35.0627 56.3281 35.0627C54.8179 35.0627 53.5938 36.2869 53.5938 37.7971V43.9307C53.5938 48.4539 49.9138 52.1338 45.3906 52.1338H16.4062C15.7336 52.1338 15.0846 52.3817 14.5832 52.8301L10.0253 56.9072C9.52369 57.3556 8.8766 57.6025 8.20312 57.6025C6.69539 57.6025 5.46875 56.3759 5.46875 54.8682V22.0557C5.46875 17.5325 9.14867 13.8525 13.6719 13.8525H36.6063C38.1165 13.8525 39.3407 12.6284 39.3407 11.1182C39.3407 9.60797 38.1165 8.38379 36.6063 8.38379H13.6719C6.13307 8.38379 0 14.517 0 22.0557V54.8682C0 59.3914 3.67992 63.0713 8.20312 63.0713Z" fill="#3C0CEC"/>
</svg>
