<svg width="25" height="26" viewBox="0 0 25 26" fill="none" xmlns="http://www.w3.org/2000/svg">
<g clip-path="url(#clip0_102_362)">
<path d="M12.5 25.5C19.4036 25.5 25 19.9036 25 13C25 6.09644 19.4036 0.5 12.5 0.5C5.59644 0.5 0 6.09644 0 13C0 19.9036 5.59644 25.5 12.5 25.5Z" fill="#D80027"/>
<path d="M6.84082 8.10742L7.91992 11.4277H11.4111L8.58887 13.4834L9.66797 16.8037L6.84082 14.7529L4.01367 16.8037L5.09766 13.4834L2.27051 11.4277H5.76172L6.84082 8.10742Z" fill="#FFDA44"/>
<path d="M14.8193 19.8604L13.9941 18.8447L12.7734 19.3184L13.4814 18.2197L12.6562 17.1992L13.9209 17.5361L14.6338 16.4375L14.7021 17.7461L15.9717 18.083L14.7461 18.5518L14.8193 19.8604Z" fill="#FFDA44"/>
<path d="M16.46 16.8818L16.8506 15.6318L15.7812 14.875L17.0898 14.8555L17.4756 13.6055L17.9004 14.8457L19.209 14.8311L18.1592 15.6123L18.5791 16.8525L17.5098 16.0957L16.46 16.8818Z" fill="#FFDA44"/>
<path d="M18.6719 9.6748L18.0957 10.8516L19.0332 11.7646L17.7393 11.5791L17.1631 12.751L16.9385 11.4619L15.6396 11.2764L16.8018 10.666L16.5771 9.37207L17.5146 10.2852L18.6719 9.6748Z" fill="#FFDA44"/>
<path d="M14.8535 6.11035L14.7559 7.41406L15.9717 7.90723L14.6973 8.21973L14.6045 9.52832L13.916 8.41504L12.6416 8.72754L13.4863 7.72656L12.793 6.61816L14.0088 7.11133L14.8535 6.11035Z" fill="#FFDA44"/>
</g>
<defs>
<clipPath id="clip0_102_362">
<rect width="25" height="25" fill="white" transform="translate(0 0.5)"/>
</clipPath>
</defs>
</svg>
