<svg width="70" height="70" viewBox="0 0 70 70" fill="none" xmlns="http://www.w3.org/2000/svg">
<path d="M52.5 35H17.5C14.2829 35 11.6667 37.6162 11.6667 40.8333V46.6667C11.6667 49.8838 14.2829 52.5 17.5 52.5H52.5C55.7171 52.5 58.3333 49.8838 58.3333 46.6667V40.8333C58.3333 37.6162 55.7171 35 52.5 35ZM17.5 46.6667V40.8333H52.5V46.6667H17.5ZM55.4167 5.83333H52.5V2.91667C52.5 1.30667 51.1963 0 49.5833 0C47.9704 0 46.6667 1.30667 46.6667 2.91667V5.83333H23.3333V2.91667C23.3333 1.30667 22.0296 0 20.4167 0C18.8038 0 17.5 1.30667 17.5 2.91667V5.83333H14.5833C6.54208 5.83333 0 12.3754 0 20.4167V55.4167C0 63.4579 6.54208 70 14.5833 70H55.4167C63.4579 70 70 63.4579 70 55.4167V20.4167C70 12.3754 63.4579 5.83333 55.4167 5.83333ZM14.5833 11.6667H55.4167C60.2408 11.6667 64.1667 15.5925 64.1667 20.4167V23.3333H5.83333V20.4167C5.83333 15.5925 9.75917 11.6667 14.5833 11.6667ZM55.4167 64.1667H14.5833C9.75917 64.1667 5.83333 60.2408 5.83333 55.4167V29.1667H64.1667V55.4167C64.1667 60.2408 60.2408 64.1667 55.4167 64.1667Z" fill="#3C0CEC"/>
</svg>
