<svg width="70" height="70" viewBox="0 0 70 70" fill="none" xmlns="http://www.w3.org/2000/svg">
<g clip-path="url(#clip0_50_1284)">
<path d="M27.7608 64.1667H8.75C7.14292 64.1667 5.83333 62.86 5.83333 61.25C5.83333 59.64 7.14292 58.3333 8.75 58.3333H24.8587C24.1996 56.4725 23.7271 54.5271 23.5054 52.5H17.5V5.83333H52.5V23.5054C54.5271 23.73 56.4725 24.2025 58.3333 24.8587V5.83333C58.3333 2.61625 55.7171 0 52.5 0H8.75C3.92583 0 0 3.92583 0 8.75V61.25C0 66.0742 3.92583 70 8.75 70H33.1012C31.0421 68.3346 29.2367 66.3717 27.7608 64.1667ZM8.75 5.83333H11.6667V52.5H8.75C7.72625 52.5 6.74625 52.6779 5.83333 53.0017V8.75C5.83333 7.14292 7.14292 5.83333 8.75 5.83333ZM49.5833 29.1667C38.325 29.1667 29.1667 38.3279 29.1667 49.5833C29.1667 60.8388 38.325 70 49.5833 70C60.8417 70 70 60.8388 70 49.5833C70 38.3279 60.8417 29.1667 49.5833 29.1667ZM49.5833 64.1667C41.5421 64.1667 35 57.6246 35 49.5833C35 41.5421 41.5421 35 49.5833 35C57.6246 35 64.1667 41.5421 64.1667 49.5833C64.1667 57.6246 57.6246 64.1667 49.5833 64.1667ZM59.5904 49.5833H52.5V58.3333H46.6667V49.5833H39.5092L47.3463 41.7463C48.5625 40.53 50.5342 40.53 51.7504 41.7463L59.5904 49.5833Z" fill="#3C0CEC"/>
</g>
<defs>
<clipPath id="clip0_50_1284">
<rect width="70" height="70" fill="white"/>
</clipPath>
</defs>
</svg>
