<svg width="19" height="19" viewBox="0 0 19 19" fill="none" xmlns="http://www.w3.org/2000/svg">
<path d="M16.6253 16.625H12.667V19H17.0576C17.5728 18.9993 18.0667 18.7943 18.4309 18.43C18.7951 18.0656 18.9999 17.5716 19.0003 17.0564V12.6666H16.6253V16.625Z" fill="white"/>
<path d="M0 1.94354V6.33333H2.375V2.375H6.33333V0H1.94275C1.42755 0.000628881 0.933655 0.205621 0.569432 0.569992C0.20521 0.934363 0.000418984 1.42835 0 1.94354Z" fill="white"/>
<path d="M2.375 12.6666H0V17.0564C0.000418984 17.5716 0.20521 18.0656 0.569432 18.43C0.933655 18.7943 1.42755 18.9993 1.94275 19H6.33333V16.625H2.375V12.6666Z" fill="white"/>
<path d="M17.0576 0H12.667V2.375H16.6253V6.33333H19.0003V1.94354C18.9999 1.42835 18.7951 0.934363 18.4309 0.569992C18.0667 0.205621 17.5728 0.000628881 17.0576 0Z" fill="white"/>
</svg>
