<svg width="233" height="119" viewBox="0 0 233 119" fill="none" xmlns="http://www.w3.org/2000/svg">
<path d="M116.278 27.2164C168.35 3.41707 205.638 -26.649 199.564 -39.938C193.491 -53.227 146.355 -44.7067 94.2834 -20.9074C42.2121 2.8919 4.92377 32.9579 10.9976 46.247C17.0713 59.536 64.2072 51.0157 116.278 27.2164Z" stroke="white" stroke-width="1.99968" stroke-miterlimit="2.61313"/>
<path d="M127.277 51.2784C179.348 27.4791 216.636 -2.58698 210.562 -15.876C204.489 -29.165 157.353 -20.6447 105.281 3.1546C53.2102 26.9539 15.9218 57.0199 21.9956 70.3089C28.0694 83.598 75.2053 75.0777 127.277 51.2784Z" stroke="white" stroke-width="5.33376" stroke-miterlimit="2.61313"/>
<path d="M138.273 75.3399C190.344 51.5406 227.632 21.4746 221.558 8.18556C215.485 -5.10346 168.349 3.41681 116.278 27.2161C64.2063 51.0154 26.9179 81.0815 32.9917 94.3705C39.0655 107.66 86.2014 99.1392 138.273 75.3399Z" stroke="white" stroke-width="13.3334" stroke-miterlimit="2.61313"/>
</svg>
