<svg width="108" height="130" viewBox="0 0 108 130" fill="none" xmlns="http://www.w3.org/2000/svg">
<path fill-rule="evenodd" clip-rule="evenodd" d="M11.5266 73.1364C25.3294 79.2105 34.0442 89.0713 35.4139 102.943C36.1372 110.268 34.5603 114.167 34.6836 116.733C35.1598 116.313 38.0227 111.717 38.7918 110.714C49.0643 97.3271 63.421 93.5516 80.7548 98.828L93.6518 63.8533C83.2604 59.8662 74.9122 60.4109 67.2241 63.1623C63.6718 64.4337 60.1584 66.5333 56.9964 69.1226C51.7808 73.3935 50.0004 77.9584 48.6389 79.1264L49.2717 72.2807C49.448 65.7985 47.7868 60.24 44.8895 54.7536C40.717 46.8515 33.3366 41.2788 24.4461 38.178L11.5268 73.1365L11.5266 73.1364Z" stroke="#FEFEFE" stroke-width="4" stroke-miterlimit="2.61313"/>
<path fill-rule="evenodd" clip-rule="evenodd" d="M79.5976 30.7929C83.408 24.2966 80.59 17.1314 75.3907 13.9428C68.8689 9.94302 61.5604 12.8706 58.3961 17.9909C54.3506 24.5373 57.3391 32.0175 62.5613 35.1266C69.1219 39.0327 76.4953 36.082 79.5976 30.7929Z" stroke="#FEFEFE" stroke-width="4" stroke-miterlimit="2.61313"/>
<path fill-rule="evenodd" clip-rule="evenodd" d="M51.8333 35.0155C55.3872 28.7086 52.4037 21.29 47.0319 18.3022C40.4563 14.645 33.2067 17.5833 30.1721 23.0137C26.4912 29.6009 29.4598 36.9471 34.9462 39.9313C41.5902 43.545 48.7091 40.5599 51.8333 35.0155Z" stroke="#FEFEFE" stroke-width="4" stroke-miterlimit="2.61313"/>
<path fill-rule="evenodd" clip-rule="evenodd" d="M75.0633 43.3852C73.5965 49.5224 77.0962 56.4726 84.1523 58.2587C90.344 59.8256 97.4076 56.271 99.1681 49.065C100.68 42.877 97.0745 35.8968 89.9265 34.1633C83.7812 32.6732 76.7404 36.3665 75.0633 43.3852Z" stroke="#FEFEFE" stroke-width="4" stroke-miterlimit="2.61313"/>
</svg>
