<svg width="445" height="231" viewBox="0 0 445 231" fill="none" xmlns="http://www.w3.org/2000/svg">
<path d="M367.242 193.749C360.725 200.332 353.483 206.632 345.614 212.586C346.213 211.877 346.795 211.16 347.365 210.434C368.869 183.261 377.054 153.217 370.654 125.281L400.108 116.794C404.332 140.834 392.831 167.918 367.242 193.749ZM329.751 137.067L360.061 128.333C367.924 164.126 347.819 202.793 310.801 230.564C330.042 204.56 337.936 170.558 329.751 137.067ZM266.432 254.089C262.2 255.572 257.908 256.97 253.571 258.288L228.886 172.622C227.933 169.313 229.843 165.856 233.154 164.902L292.156 147.9L289.11 137.328L230.107 154.329C226.797 155.283 223.34 153.372 222.386 150.064L207.727 99.189L197.154 102.236L211.813 153.11C212.767 156.419 210.857 159.876 207.548 160.83L151.948 176.851L154.994 187.423L210.594 171.402C213.903 170.449 217.36 172.359 218.313 175.668L242.998 261.335C238.625 262.526 234.248 263.627 229.875 264.623C181.519 269.099 135.174 238.087 122.454 189.078C109.112 137.671 138.235 84.1489 188.657 67.4629C243.499 49.3148 302.135 80.6105 317.981 135.603C331.659 183.072 308.967 232.546 266.431 254.089L266.432 254.089ZM83.6868 207.97L113.995 199.236C124.888 231.948 149.653 256.539 179.792 268.314C133.672 264.499 96.0734 242.459 83.6868 207.97ZM112.413 267.177C77.0032 258.923 52.8443 242.115 43.6284 219.513L73.0939 211.022C82.5388 238.082 105.446 259.167 138.112 270.73C138.98 271.041 139.846 271.341 140.725 271.614C130.896 270.759 121.422 269.276 112.413 267.177ZM130.366 96.7839C111.426 122.371 103.486 155.686 111.024 188.643L80.7661 197.362C73.8627 162.035 93.9106 124.131 130.366 96.7839ZM73.2254 131.178C81.8737 122.447 91.7851 114.21 102.756 106.583C99.585 109.923 96.5914 113.362 93.7875 116.907C72.7019 143.548 64.4386 172.961 70.1527 200.42L40.4984 208.965C35.8598 184.722 47.335 157.314 73.2251 131.179L73.2254 131.178ZM356.887 117.798L326.629 126.517C315.475 94.6021 291.024 70.6198 261.375 59.0339C306.79 62.79 343.936 84.214 356.887 117.798ZM328.054 57.7501C363.882 66.1013 388.171 83.2045 397.145 106.198L367.502 114.739C357.727 88.4503 335.069 67.947 303.04 56.611C298.77 55.105 294.393 53.7792 289.931 52.6382C303.286 53.2534 316.075 54.9621 328.054 57.7501ZM330.544 47.0376C289.342 37.441 239.106 40.0892 189.123 54.4919C139.128 68.8979 95.1977 93.3833 65.4072 123.436C34.8158 154.314 22.631 187.527 31.112 216.96C39.5926 246.391 67.5819 268.027 109.914 277.894C141.115 285.161 177.468 285.403 214.99 278.851C225.405 277.762 235.913 275.845 246.388 273.101L250.538 287.501L261.111 284.454L256.961 270.055C267.291 266.803 277.208 262.834 286.605 258.215C321.85 243.8 352.513 224.247 375.051 201.495C405.654 170.612 417.827 137.403 409.346 107.972C400.865 78.5392 372.888 56.8996 330.544 47.0376Z" stroke="white" stroke-width="3"/>
</svg>
