<svg width="233" height="183" viewBox="0 0 233 183" fill="none" xmlns="http://www.w3.org/2000/svg">
<path d="M116.278 91.2164C168.35 67.4171 205.638 37.351 199.564 24.062C193.491 10.773 146.355 19.2933 94.2834 43.0926C42.2121 66.8919 4.92377 96.9579 10.9976 110.247C17.0713 123.536 64.2072 115.016 116.278 91.2164Z" stroke="white" stroke-width="1.99968" stroke-miterlimit="2.61313"/>
<path d="M127.276 115.278C179.347 91.4791 216.636 61.413 210.562 48.124C204.488 34.835 157.352 43.3553 105.281 67.1546C53.2097 90.9539 15.9213 121.02 21.9951 134.309C28.0689 147.598 75.2048 139.078 127.276 115.278Z" stroke="white" stroke-width="5.33376" stroke-miterlimit="2.61313"/>
<path d="M138.274 139.34C190.345 115.541 227.633 85.4748 221.559 72.1858C215.486 58.8968 168.35 67.4171 116.278 91.2164C64.2072 115.016 26.9189 145.082 32.9927 158.371C39.0665 171.66 86.2023 163.139 138.274 139.34Z" stroke="white" stroke-width="13.3334" stroke-miterlimit="2.61313"/>
</svg>
