<svg width="122" height="123" viewBox="0 0 122 123" fill="none" xmlns="http://www.w3.org/2000/svg">
<path d="M33.0223 61.2085C75.4295 49.0494 107.292 30.4189 104.189 19.5963C101.085 8.77363 64.1921 9.85705 21.785 22.0162C-20.6222 34.1753 -52.4844 52.8057 -49.3813 63.6284C-46.2782 74.451 -9.38484 73.3676 33.0223 61.2085Z" stroke="white" stroke-miterlimit="2.61313"/>
<path d="M38.641 80.8044C81.0481 68.6453 112.91 50.0149 109.807 39.1922C106.704 28.3696 69.8108 29.453 27.4036 41.6121C-15.0035 53.7713 -46.8658 72.4017 -43.7627 83.2243C-40.6596 94.047 -3.7662 92.9635 38.641 80.8044Z" stroke="white" stroke-width="3" stroke-miterlimit="2.61313"/>
<path d="M44.2596 100.401C86.6668 88.2415 118.529 69.6111 115.426 58.7884C112.323 47.9658 75.4294 49.0492 33.0223 61.2083C-9.38489 73.3674 -41.2471 91.9979 -38.144 102.821C-35.0409 113.643 1.85246 112.56 44.2596 100.401Z" stroke="white" stroke-width="6" stroke-miterlimit="2.61313"/>
</svg>
