<svg width="162" height="163" viewBox="0 0 162 163" fill="none" xmlns="http://www.w3.org/2000/svg">
<path d="M91.8205 57.7789L90.9755 56.3567L89.8574 56.3698L89.2142 1.54235L71.2704 2.0479L72.2239 56.3601L72.2865 59.9253L69.6942 57.477L29.9724 19.9619L19.1288 31.2291L56.9052 70.5243L59.3105 73.0263L55.8401 73.0638L1.50848 73.6501L1.49988 90.2408L55.8402 90.696L59.334 90.7252L56.9065 93.2381L19.1212 132.352L29.9254 143.517L61.1237 111.498C61.1237 111.497 61.1238 111.497 61.1239 111.497C61.3211 111.295 61.3752 111.102 61.4904 110.692C61.5129 110.611 61.5377 110.523 61.5664 110.425C62.5492 107.049 62.546 102.578 62.3716 97.5225C62.3458 96.7731 62.3163 96.0121 62.2864 95.2429C62.1191 90.9279 61.9418 86.354 62.3446 82.1155C62.8196 77.116 64.1193 72.308 67.4177 68.7555C70.756 65.1599 75.9028 63.0995 83.517 63.0995C87.7469 63.0995 91.3138 63.1849 94.3733 63.2582C94.5372 63.2621 94.6996 63.266 94.8606 63.2698C98.0392 63.3456 100.629 63.4009 102.877 63.3275C107.317 63.1826 110.288 62.5386 113.486 60.6067L114.261 61.8905L113.486 60.6067C113.583 60.5477 113.685 60.4907 113.764 60.4468L113.786 60.4348C113.876 60.3846 113.947 60.3445 114.014 60.3033C114.146 60.2229 114.231 60.1584 114.293 60.0956C114.293 60.0955 114.293 60.0954 114.293 60.0953L142.913 31.2168L132.01 19.9673L92.8649 56.9903L92.8702 57.4373L91.8216 57.7786L91.8205 57.7789Z" stroke="#F9F9F9" stroke-width="3"/>
<path d="M72.8713 161.042L88.6758 160.652L89.8384 107.217L89.9119 103.838L92.3682 106.159L132.009 143.607L142.918 132.349L105.052 93.0687L102.637 90.5639L106.116 90.5278L160.447 89.9638L160.494 73.1517L92.5455 72.5571C86.6495 72.5056 81.5717 73.3046 78.0108 75.4074C74.5862 77.4298 72.4128 80.7436 72.4101 86.2539C72.4101 86.2554 72.4101 86.2569 72.4101 86.2584L72.8713 161.042Z" stroke="#F9F9F9" stroke-width="3"/>
</svg>
