<svg width="45" height="46" viewBox="0 0 45 46" fill="none" xmlns="http://www.w3.org/2000/svg">
<path fill-rule="evenodd" clip-rule="evenodd" d="M25.3769 15.6535L36.6825 4.96092L40.2817 8.67458L32.0442 16.9865C31.9448 17.0867 31.8277 17.1385 31.7394 17.1918C29.8005 18.3634 28.1282 17.9443 23.1993 17.9443C15.04 17.9443 18.6807 26.7423 17.502 30.79C17.4672 30.9095 17.4334 31.1021 17.2775 31.2622L8.31176 40.464L4.73205 36.7645L15.5079 25.61L-6.10352e-05 25.4801L0.00275803 20.0462L15.5068 19.8788L4.73561 8.67458L8.31186 4.95862L19.6458 15.6629L19.3737 0.16397L25.1936 0L25.3772 15.6534L25.3769 15.6535Z" fill="white"/>
<path fill-rule="evenodd" clip-rule="evenodd" d="M44.9845 25.4023L29.4816 25.5632L40.2794 36.7644L36.6825 40.4762L25.3722 29.7914L25.0406 45.0322L19.8285 45.1608L19.6978 23.9605C19.6988 20.6253 22.3872 19.709 25.7113 19.7381L45 19.9069L44.9845 25.4023Z" fill="white"/>
</svg>
