<svg width="45" height="46" viewBox="0 0 45 46" fill="none" xmlns="http://www.w3.org/2000/svg">
<path fill-rule="evenodd" clip-rule="evenodd" d="M25.3764 15.6535L36.682 4.96092L40.2812 8.67458L32.0437 16.9865C31.9443 17.0867 31.8272 17.1385 31.7389 17.1918C29.8 18.3634 28.1277 17.9443 23.1989 17.9443C15.0395 17.9443 18.6802 26.7423 17.5015 30.79C17.4667 30.9095 17.4329 31.1021 17.277 31.2622L8.31127 40.464L4.73156 36.7645L15.5074 25.61L-0.000549316 25.4801L0.00226974 20.0462L15.5063 19.8788L4.73512 8.67458L8.31137 4.95862L19.6453 15.6629L19.3732 0.16397L25.1931 0L25.3767 15.6534L25.3764 15.6535Z" fill="black"/>
<path fill-rule="evenodd" clip-rule="evenodd" d="M44.9845 25.4024L29.4816 25.5633L40.2794 36.7646L36.6825 40.4763L25.3722 29.7915L25.0406 45.0324L19.8285 45.1609L19.6978 23.9606C19.6988 20.6254 22.3872 19.7091 25.7113 19.7382L45 19.907L44.9845 25.4024Z" fill="black"/>
</svg>
