<svg width="25" height="26" viewBox="0 0 25 26" fill="none" xmlns="http://www.w3.org/2000/svg">
<g clip-path="url(#clip0_102_370)">
<path d="M12.5 25.5C19.4036 25.5 25 19.9036 25 13C25 6.09644 19.4036 0.5 12.5 0.5C5.59644 0.5 0 6.09644 0 13C0 19.9036 5.59644 25.5 12.5 25.5Z" fill="#F0F0F0"/>
<path d="M2.58403 5.38965C1.60215 6.66714 0.861768 8.13955 0.430664 9.73911H6.9335L2.58403 5.38965Z" fill="#0052B4"/>
<path d="M24.5691 9.73906C24.138 8.13955 23.3976 6.66714 22.4158 5.38965L18.0664 9.73906H24.5691Z" fill="#0052B4"/>
<path d="M0.430664 16.2607C0.861816 17.8603 1.6022 19.3327 2.58403 20.6101L6.93335 16.2607H0.430664Z" fill="#0052B4"/>
<path d="M20.1102 3.08408C18.8327 2.1022 17.3603 1.36182 15.7607 0.930664V7.43345L20.1102 3.08408Z" fill="#0052B4"/>
<path d="M4.88965 22.9162C6.16714 23.8981 7.63955 24.6385 9.23906 25.0696V18.5669L4.88965 22.9162Z" fill="#0052B4"/>
<path d="M9.23901 0.930664C7.6395 1.36182 6.16709 2.1022 4.88965 3.08403L9.23901 7.4334V0.930664Z" fill="#0052B4"/>
<path d="M15.7607 25.0696C17.3603 24.6385 18.8327 23.8981 20.1101 22.9163L15.7607 18.5669V25.0696Z" fill="#0052B4"/>
<path d="M18.0664 16.2607L22.4158 20.6102C23.3976 19.3327 24.138 17.8603 24.5691 16.2607H18.0664Z" fill="#0052B4"/>
<path d="M24.8942 11.3696H14.1305H14.1305V0.605811C13.5967 0.536328 13.0526 0.5 12.5 0.5C11.9473 0.5 11.4033 0.536328 10.8696 0.605811V11.3695V11.3695H0.105811C0.0363281 11.9033 0 12.4474 0 13C0 13.5527 0.0363281 14.0967 0.105811 14.6304H10.8695H10.8695V25.3942C11.4033 25.4637 11.9473 25.5 12.5 25.5C13.0526 25.5 13.5967 25.4637 14.1304 25.3942V14.6305V14.6305H24.8942C24.9637 14.0967 25 13.5527 25 13C25 12.4474 24.9637 11.9033 24.8942 11.3696Z" fill="#D80027"/>
<path d="M15.7607 16.2608L21.3387 21.8387C21.5952 21.5823 21.8399 21.3142 22.0734 21.0362L17.298 16.2607H15.7607V16.2608Z" fill="#D80027"/>
<path d="M9.23911 16.2607H9.23901L3.66113 21.8386C3.91758 22.0952 4.18569 22.3399 4.46362 22.5734L9.23911 17.7978V16.2607Z" fill="#D80027"/>
<path d="M9.23945 9.73921V9.73911L3.66152 4.16113C3.40498 4.41758 3.16025 4.68569 2.92676 4.96362L7.70229 9.73916L9.23945 9.73921Z" fill="#D80027"/>
<path d="M15.7607 9.73901L21.3387 4.16099C21.0823 3.90444 20.8142 3.65972 20.5362 3.42627L15.7607 8.20181V9.73901Z" fill="#D80027"/>
</g>
<defs>
<clipPath id="clip0_102_370">
<rect width="25" height="25" fill="white" transform="translate(0 0.5)"/>
</clipPath>
</defs>
</svg>
