<?xml version="1.0" encoding="UTF-8"?>
<!DOCTYPE svg PUBLIC "-//W3C//DTD SVG 1.1//EN" "http://www.w3.org/Graphics/SVG/1.1/DTD/svg11.dtd">
<!-- Creator: CorelDRAW 2020 (64-Bit) -->
<svg xmlns="http://www.w3.org/2000/svg" xml:space="preserve" width="2.06945in" height="2.06945in" version="1.1" style="shape-rendering:geometricPrecision; text-rendering:geometricPrecision; image-rendering:optimizeQuality; fill-rule:evenodd; clip-rule:evenodd"
viewBox="0 0 135.27 135.27"
 xmlns:xlink="http://www.w3.org/1999/xlink"
 xmlns:xodm="http://www.corel.com/coreldraw/odm/2003">
 <defs>
  <style type="text/css">
   <![CDATA[
    .fil0 {fill:url(#id0);fill-rule:nonzero}
    .fil1 {fill:url(#id1);fill-rule:nonzero}
    .fil3 {fill:url(#id2);fill-rule:nonzero}
    .fil4 {fill:url(#id3);fill-rule:nonzero}
    .fil2 {fill:url(#id4);fill-rule:nonzero}
   ]]>
  </style>
  <linearGradient id="id0" gradientUnits="userSpaceOnUse" x1="-33.3" y1="42.09" x2="205.91" y2="168.28">
   <stop offset="0" style="stop-opacity:1; stop-color:#3C0CEC"/>
   <stop offset="1" style="stop-opacity:1; stop-color:#CC2F9E"/>
  </linearGradient>
  <linearGradient id="id1" gradientUnits="userSpaceOnUse" x1="7.56" y1="157.64" x2="382.96" y2="-72.99">
   <stop offset="0" style="stop-opacity:1; stop-color:#3C0CEC"/>
   <stop offset="1" style="stop-opacity:1; stop-color:#FB4600"/>
  </linearGradient>
  <linearGradient id="id2" gradientUnits="userSpaceOnUse" xlink:href="#id1" x1="7.56" y1="157.64" x2="382.96" y2="-72.99">
  </linearGradient>
  <linearGradient id="id3" gradientUnits="userSpaceOnUse" xlink:href="#id1" x1="7.56" y1="157.64" x2="382.96" y2="-72.99">
  </linearGradient>
  <linearGradient id="id4" gradientUnits="userSpaceOnUse" xlink:href="#id1" x1="7.56" y1="157.64" x2="382.96" y2="-72.99">
  </linearGradient>
 </defs>
 <g id="Layer_x0020_1">
  <metadata id="CorelCorpID_0Corel-Layer"/>
  <path class="fil0" d="M67.63 0c18.68,0 35.59,7.57 47.82,19.81 12.24,12.24 19.81,29.15 19.81,47.82 0,18.68 -7.57,35.58 -19.81,47.82 -12.24,12.24 -29.15,19.81 -47.82,19.81 -18.68,0 -35.58,-7.57 -47.82,-19.81 -12.24,-12.24 -19.81,-29.15 -19.81,-47.82 0,-18.68 7.57,-35.59 19.81,-47.82 12.24,-12.24 29.15,-19.81 47.82,-19.81zm45.9 21.74c-11.75,-11.75 -27.97,-19.01 -45.9,-19.01 -17.92,0 -34.15,7.27 -45.9,19.01 -11.75,11.75 -19.01,27.97 -19.01,45.9 0,17.92 7.27,34.15 19.01,45.9 11.75,11.75 27.97,19.01 45.9,19.01 17.92,0 34.15,-7.27 45.9,-19.01 11.75,-11.75 19.01,-27.97 19.01,-45.9 0,-17.92 -7.27,-34.15 -19.01,-45.9z"/>
  <g id="_2186104782640">
   <path class="fil1" d="M123.63 41.52l-48.89 0c-1.72,-0.01 -3.71,-1.6 -3.73,-3.66l0 -31.94c8.14,0.42 16.14,2.48 23.48,6.02l-10.43 24.73 2.94 0 9.91 -23.47c7.17,3.88 13.53,9.15 18.67,15.47l-8.14 8 3.85 -0 5.93 -5.84c1.38,1.87 2.68,3.83 3.84,5.84 0.94,1.58 1.78,3.19 2.56,4.85z"/>
   <path class="fil2" d="M66.7 5.84l0 31.97c-0.01,1.87 -1.49,3.71 -3.53,3.7l-51.53 0c0.77,-1.66 1.62,-3.27 2.52,-4.84 1.53,-2.64 3.26,-5.17 5.16,-7.55l7.46 7.55 3.81 -0 -9.53 -9.64c5.44,-6.25 12.11,-11.36 19.57,-14.99l10.03 24.63 2.92 0 -10.49 -25.74c7.45,-3.23 15.5,-4.97 23.61,-5.09l-0 -0z"/>
   <path class="fil3" d="M129.4 67.59c0,0.02 0,0.05 0,0.06 0,2.82 -0.2,5.64 -0.58,8.44 -0.12,0.91 -0.27,1.81 -0.44,2.71 -1.23,6.71 -3.58,13.19 -6.93,19.12 -0.45,0.79 -0.92,1.58 -1.39,2.35 -3.38,5.44 -7.61,10.33 -12.49,14.48 -0.68,0.59 -1.38,1.16 -2.11,1.71 -4.81,3.73 -10.18,6.75 -15.88,8.91l0 0c-0.84,0.33 -1.69,0.62 -2.55,0.91 -5.17,1.72 -10.58,2.76 -16.02,3.06 -0.51,0 -1.02,0 -1.52,0.06 -0.5,0.06 -1.23,0 -1.85,0l-0.94 -0c-5.97,-0.08 -11.93,-1.04 -17.63,-2.83 -0.87,-0.27 -1.72,-0.56 -2.58,-0.87 -5.84,-2.13 -11.35,-5.16 -16.28,-8.94 -0.72,-0.55 -1.43,-1.12 -2.13,-1.7 -5.07,-4.23 -9.46,-9.27 -12.93,-14.89 -0.49,-0.77 -0.95,-1.56 -1.39,-2.35 -3.46,-6.16 -5.83,-12.89 -7.01,-19.85 -0.16,-0.88 -0.3,-1.8 -0.4,-2.71 -0.32,-2.54 -0.48,-5.12 -0.48,-7.69 0,-4.97 0.6,-9.93 1.78,-14.75 0.19,-0.78 0.4,-1.56 0.62,-2.33 0,-0.1 0.06,-0.2 0.08,-0.31 0.44,-1.48 0.93,-2.93 1.47,-4.36l53.36 -0c2.19,0.01 3.54,2.1 3.51,3.58l0 12.7c-0.88,0.09 -1.76,0.27 -2.62,0.52l-4.92 -12.11 -2.92 -0 5.32 13.1c-0.98,0.47 -1.91,1.04 -2.77,1.71l-14.59 -14.84 -3.81 0 16.48 16.7c-0.36,0.4 -0.7,0.83 -1.02,1.26 -4.86,-2.53 -10.14,-4.15 -15.58,-4.79 -1.02,-0.12 -2.04,-0.22 -3.05,-0.3l-0 31.12c3.34,0.23 6.66,0.8 9.89,1.68 1.02,0.28 1.96,0.59 2.92,0.92 2.46,0.86 4.84,1.96 7.08,3.29 0.8,0.48 1.58,1.02 2.3,1.51 2.89,2 5.36,4.57 7.23,7.54l0.21 0.37c0.68,1.17 1.25,2.41 1.69,3.7 0.27,-0.89 0.61,-1.77 1.02,-2.61 0.42,-0.86 0.92,-1.69 1.46,-2.47 1.65,-2.49 3.72,-4.68 6.11,-6.46 0.72,-0.55 1.49,-1.02 2.28,-1.58 2.17,-1.35 4.49,-2.49 6.88,-3.37 0.92,-0.36 1.87,-0.68 2.84,-1.02 3.75,-1.12 7.64,-1.82 11.54,-2.04l0 -31.03 -1.15 0.08c-6.51,0.47 -12.87,2.35 -18.59,5.49 -0.24,-0.35 -0.51,-0.68 -0.78,-1.02l17.19 -16.97 -3.86 0 -15.27 15.07c-0.81,-0.69 -1.7,-1.29 -2.65,-1.79l5.61 -13.23 -2.94 -0 -5.18 12.18c-0.66,-0.22 -1.35,-0.39 -2.04,-0.51l0 -12.82c-0,-1.76 1.58,-3.55 3.72,-3.56l50.73 0c0.58,1.53 1.09,3.08 1.55,4.66 0.12,0.4 0.22,0.79 0.33,1.19 0.23,0.88 0.46,1.76 0.65,2.66 0.94,4.31 1.42,8.74 1.42,13.15 0,0.03 0,0.08 0,0.11l-0 0z"/>
   <path class="fil4" d="M78.99 69.65c-1.51,0.99 -2.95,2.12 -4.25,3.37 -0.87,0.83 -1.68,1.73 -2.42,2.67 -0.3,0.37 -0.56,0.74 -0.82,1.13 -0.14,0.19 -0.29,0.41 -0.41,0.61l-0.08 0.12 0 0c-0.15,0.25 -0.32,0.52 -0.46,0.77l0 -0c-0.15,0.25 -0.28,0.51 -0.43,0.77l-0.25 0.52c-0.06,0.14 -0.13,0.29 -0.19,0.42 -0.26,0.57 -0.5,1.16 -0.69,1.76 -0.07,0.19 -0.13,0.39 -0.19,0.59 -0.15,-0.46 -0.32,-0.9 -0.51,-1.34 -0.19,-0.45 -0.38,-0.87 -0.59,-1.29l-0.41 -0.75c0,-0.08 -0.09,-0.16 -0.14,-0.24l-0.19 -0.37 -0.21 -0.36 -0.06 -0.08c-0.06,-0.1 -0.13,-0.2 -0.2,-0.31 -0.05,-0.1 -0.12,-0.2 -0.19,-0.28 -0.14,-0.22 -0.31,-0.45 -0.47,-0.67 -0.16,-0.22 -0.52,-0.69 -0.79,-1.02 -0.79,-0.94 -1.65,-1.83 -2.56,-2.65 -1.44,-1.29 -3.01,-2.45 -4.66,-3.46 0.19,-0.27 0.41,-0.53 0.63,-0.77 1.72,-1.96 3.98,-3.38 6.5,-4.07 0.57,-0.15 1.15,-0.27 1.74,-0.34 0.17,-0.03 0.35,-0.05 0.53,-0.06 0.38,0 0.75,0 1.14,0 0.02,0 0.03,0 0.05,0 0.5,0 1.01,0.04 1.51,0.1 0.36,0.03 0.72,0.09 1.08,0.16 0.4,0.08 0.78,0.18 1.16,0.3 0.87,0.25 1.71,0.59 2.5,1.02 0.67,0.37 1.31,0.8 1.91,1.27 0.71,0.56 1.36,1.2 1.93,1.89 0.21,0.18 0.37,0.39 0.52,0.59z"/>
  </g>
 </g>
</svg>
